<?xml version="1.0" encoding="UTF-8"?> <svg xmlns="http://www.w3.org/2000/svg" width="26" height="29" viewBox="0 0 26 29" fill="none"><path fill-rule="evenodd" clip-rule="evenodd" d="M16.5798 0.963986L15.4668 2.60073C14.6136 2.34576 13.6618 2.20614 12.6207 2.20614C11.5448 2.20614 10.5642 2.35524 9.68943 2.62665C9.68345 2.61578 9.67724 2.60496 9.67078 2.59421L8.6616 0.963986C8.42871 0.575839 7.96293 0.498209 7.57479 0.731097C7.18664 0.963986 7.10901 1.42976 7.3419 1.81791L8.22523 3.24483C6.198 4.36038 5.00439 6.26527 4.85771 8.41651H20.3836C20.2354 6.24292 19.0184 4.32083 16.9527 3.21032L17.8995 1.81791C18.1324 1.42976 18.0548 0.963986 17.6666 0.731097C17.2785 0.498209 16.8127 0.575839 16.5798 0.963986ZM8.73919 5.7771C8.73919 6.24288 9.04971 6.5534 9.51549 6.5534C9.98126 6.5534 10.2918 6.16525 10.2918 5.7771C10.2918 5.31133 9.98126 5.00081 9.51549 5.00081C9.04971 5.00081 8.73919 5.31133 8.73919 5.7771ZM14.9496 5.7771C14.9496 6.24288 15.2601 6.5534 15.7258 6.5534C16.1916 6.5534 16.5021 6.16525 16.5021 5.7771C16.5021 5.31133 16.1916 5.00081 15.7258 5.00081C15.2601 5.00081 14.9496 5.31133 14.9496 5.7771ZM4.85771 9.96904V21.6135C4.85771 22.4674 5.55638 23.1661 6.4103 23.1661H7.96288V27.0475C7.96288 27.9015 8.66155 28.6001 9.51547 28.6001C10.3694 28.6001 11.0681 27.9015 11.0681 27.0475V23.1661H14.1733V27.0475C14.1733 27.9015 14.872 28.6001 15.7259 28.6001C16.5798 28.6001 17.2785 27.9015 17.2785 27.0475V23.1661H18.831C19.685 23.1661 20.3836 22.4674 20.3836 21.6135V9.96904H4.85771ZM1.75254 20.0609C2.60647 20.0609 3.30513 19.3622 3.30513 18.5083V11.5216C3.30513 10.6677 2.60647 9.96905 1.75254 9.96905C0.898617 9.96905 0.199951 10.6677 0.199951 11.5216V18.5083C0.199951 19.3622 0.898617 20.0609 1.75254 20.0609ZM23.4888 20.0609C24.3427 20.0609 25.0414 19.3622 25.0414 18.5083V11.5216C25.0414 10.6677 24.3427 9.96905 23.4888 9.96905C22.6349 9.96905 21.9362 10.6677 21.9362 11.5216V18.5083C21.9362 19.3622 22.6349 20.0609 23.4888 20.0609Z" fill="#9EB1E2"></path></svg> 