<?xml version="1.0" encoding="UTF-8"?> <svg xmlns="http://www.w3.org/2000/svg" width="25" height="29" viewBox="0 0 25 29" fill="none"><path d="M24.0598 21.1434C23.4035 22.6009 23.0873 23.2524 22.2432 24.5388C21.0615 26.3363 19.3947 28.5809 17.3356 28.5951C15.5024 28.6118 15.0293 27.3991 12.5398 27.4205C10.0527 27.4324 9.53441 28.6189 7.69883 28.5999C5.63736 28.5809 4.06095 26.5598 2.87923 24.7646C-0.425769 19.7311 -0.77529 13.8296 1.26715 10.691C2.71279 8.46552 4.99776 7.15779 7.14482 7.15779C9.3323 7.15779 10.7066 8.35853 12.5137 8.35853C14.2684 8.35853 15.336 7.15541 17.8659 7.15541C19.7775 7.15541 21.7986 8.19684 23.2442 9.99438C18.5174 12.5861 19.2854 19.3364 24.0598 21.1434ZM15.9447 5.14626C16.8649 3.96454 17.5639 2.29777 17.3095 0.600098C15.8092 0.702339 14.0544 1.66055 13.0296 2.90171C12.0999 4.03349 11.3296 5.71215 11.6292 7.33612C13.2674 7.38843 14.9627 6.41119 15.9447 5.14626Z" fill="#9EB1E2"></path></svg> 