<?xml version="1.0" encoding="UTF-8"?> <svg xmlns="http://www.w3.org/2000/svg" width="62" height="56" viewBox="0 0 62 56" fill="none"><path d="M6.45 42.3C2.45 38.25 0 32.65 0 26.5C0 14.05 10.05 4 22.5 4C34.95 4 45 14.05 45 26.5C45 38.95 34.95 49 22.5 49H0L6.45 42.3Z" fill="#D3E9FB"></path><path d="M30 56.0002H7.50001C6.90001 56.0002 6.35001 55.6502 6.10001 55.1002C5.85001 54.5502 6 53.9002 6.4 53.4502L11.9 47.7502C8.1 43.4002 6.00001 37.8502 6.00001 32.0002C6.00001 18.7502 16.75 8.00024 30 8.00024C30.65 8.00024 31.25 8.00024 31.9 8.05024C32.75 8.10024 33.35 8.85024 33.3 9.65024C33.25 10.5002 32.5 11.1002 31.7 11.0502C31.1 11.0002 30.55 11.0002 30 11.0002C18.4 11.0002 9.00001 20.4002 9.00001 32.0002C9.00001 37.5502 11.15 42.8002 15.05 46.7502C15.6 47.3502 15.65 48.2502 15.05 48.8502L11.05 53.0002H30C41.6 53.0002 51 43.6002 51 32.0002C51 31.4502 51 30.9002 50.95 30.3502C50.9 29.5002 51.5 28.8002 52.35 28.7502C53.15 28.7002 53.9 29.3002 53.95 30.1502C54 30.7502 54 31.4002 54 32.0002C54 45.2502 43.25 56.0002 30 56.0002Z" fill="#1740AA"></path><path d="M54.5707 21.5715C58.4759 17.6663 58.4759 11.3347 54.5707 7.42949C50.6655 3.52428 44.3339 3.52428 40.4287 7.42949C36.5235 11.3347 36.5235 17.6663 40.4287 21.5715C44.3339 25.4767 50.6655 25.4767 54.5707 21.5715Z" fill="#CF233D"></path><path fill-rule="evenodd" clip-rule="evenodd" d="M38.5 29.0002H21.5C20.65 29.0002 20 28.3502 20 27.5002C20 26.6502 20.65 26.0002 21.5 26.0002H38.5C39.35 26.0002 40 26.6502 40 27.5002C40 28.3502 39.35 29.0002 38.5 29.0002ZM31 38.0002H21.5C20.65 38.0002 20 37.3502 20 36.5002C20 35.6502 20.65 35.0002 21.5 35.0002H31C31.85 35.0002 32.5 35.6502 32.5 36.5002C32.5 37.3502 31.85 38.0002 31 38.0002ZM38.5 38H39C39.85 38 40.5 37.35 40.5 36.5C40.5 35.65 39.85 35 39 35H38.5C37.65 35 37 35.65 37 36.5C37 37.35 37.65 38 38.5 38Z" fill="#1740AA"></path><ellipse cx="47.5596" cy="14.5153" rx="2.25" ry="2.25" transform="rotate(2.99404 47.5596 14.5153)" fill="white"></ellipse></svg> 