<?xml version="1.0" encoding="UTF-8"?> <svg xmlns="http://www.w3.org/2000/svg" width="60" height="60" viewBox="0 0 60 60" fill="none"><rect x="19" y="4" width="33" height="33" rx="16.5" fill="#D3E9FB"></rect><path fill-rule="evenodd" clip-rule="evenodd" d="M13.1999 19.8001C13.1999 10.8563 20.4561 3.6001 29.3999 3.6001C38.3436 3.6001 45.5999 10.8563 45.5999 19.8001C45.5999 28.7248 38.3746 35.9691 29.4572 36H30.5999V49.6523C31.4275 48.641 32.6988 47.2078 33.9885 46.5223C32.7999 44.9397 31.8531 42.1292 34.2 38.9999C37.8 34.1999 47.4 31.7999 57 38.9999C56.2 39.3999 54.87 41.3249 53.4 45C53.2602 45.3494 53.1245 45.6928 52.9914 46.0295L52.9914 46.0296C50.8398 51.4731 49.3806 55.165 42.6 54.5999C36.84 54.1199 35 50.3999 34.8 48.5999V48.5173C33.5473 49.6088 31.606 51.3971 30.5999 53.127V57.6H28.7999V53.1269C27.7938 51.397 25.8526 49.6087 24.5999 48.5173V48.5999C24.3999 50.3999 22.5599 54.1199 16.7999 54.5999C10.0193 55.165 8.56005 51.473 6.40851 46.0296L6.40841 46.0293L6.40812 46.0286C6.27517 45.6922 6.13957 45.3491 5.9999 45C4.52989 41.3249 3.1999 39.3999 2.3999 38.9999C11.9999 31.7999 21.5999 34.1999 25.1999 38.9999C27.5468 42.1292 26.6 44.9397 25.4114 46.5223C26.7011 47.2078 27.9724 48.6409 28.7999 49.6522V36H29.3426C20.4252 35.9691 13.1999 28.7248 13.1999 19.8001ZM43.7999 19.8001C43.7999 11.8267 37.3733 5.4001 29.3999 5.4001C21.4265 5.4001 14.9999 11.8267 14.9999 19.8001C14.9999 27.7735 21.4265 34.2001 29.3999 34.2001C37.3733 34.2001 43.7999 27.7735 43.7999 19.8001ZM28.4999 11.8688V9.9001H30.2999V11.9813C32.9085 12.4313 33.8085 14.2208 34.3499 16.2001H32.5499C32.2792 14.7587 31.3757 13.5845 29.4843 13.5845C26.7843 13.5845 26.4186 15.3915 26.4186 16.2001C26.4186 18.0915 28.1272 18.5345 30.0186 18.9845C32.36 19.5259 34.7999 20.345 34.7999 23.3157C34.7999 26.9157 31.6499 27.8931 30.2999 27.9845V29.7001H28.4999V27.9845C26.9706 27.7138 24.2706 26.8208 23.9999 22.9501H25.7999C25.7999 24.1208 26.6085 26.2688 29.3999 26.2688C32.1913 26.2688 32.8311 24.9259 32.8311 23.4845C32.8311 21.479 31.0255 21.0429 29.0904 20.5755C26.8564 20.0359 24.4499 19.4546 24.4499 16.3688C24.4499 13.3103 27.0585 12.0481 28.4999 11.8688ZM5.3999 39.6001C5.7999 40.0001 7.59057 43.2767 8.9999 46.8C11.3999 52.8 14.8207 54.0897 19.7999 51.6C23.0399 49.98 22.8779 47.8741 22.8131 47.0316V47.0316C22.8059 46.938 22.7999 46.8601 22.7999 46.8001C22.7999 46.2001 14.3999 42.6001 11.9999 42.6001C10.0799 42.6001 10.7999 41.0001 11.3999 40.2001C12.9999 40.4001 17.5199 41.5201 22.7999 44.4001C23.3999 44.8001 24.5999 45.1201 24.5999 43.2001C24.5999 39.6001 17.3999 31.2001 5.3999 39.6001ZM54 39.6001C53.6 40.0001 51.8093 43.2767 50.4 46.8C48 52.8 44.5792 54.0897 39.6 51.6C36.36 49.98 36.522 47.8741 36.5868 47.0317C36.594 46.938 36.6 46.8601 36.6 46.8001C36.6 46.2001 45 42.6001 47.4 42.6001C49.32 42.6001 48.6 41.0001 48 40.2001C46.4 40.4001 41.88 41.5201 36.6 44.4001C36 44.8001 34.8 45.1201 34.8 43.2001C34.8 39.6001 42 31.2001 54 39.6001Z" fill="#1740AA"></path></svg> 