<?xml version="1.0" encoding="UTF-8"?> <svg xmlns="http://www.w3.org/2000/svg" width="54" height="52" viewBox="0 0 54 52" fill="none"><path d="M4.19998 0.800049C3.88173 0.800081 3.57652 0.926519 3.35148 1.15156C3.12645 1.37659 3.00001 1.6818 2.99998 2.00005V6.62895C2.95177 6.78926 2.42497 8.54024 1.84919 10.5055C1.54842 11.5321 1.2472 12.574 1.01951 13.3907C0.905663 13.799 0.810377 14.1498 0.740601 14.4243C0.705713 14.5615 0.676691 14.6773 0.653882 14.7829C0.631073 14.8884 0.599976 14.8858 0.599976 15.2C0.599976 16.4347 1.08577 17.5551 1.86091 18.4086C1.81906 18.5348 1.79847 18.6671 1.79998 18.8V50C1.80001 50.3183 1.92645 50.6235 2.15148 50.8485C2.37652 51.0736 2.68173 51.2 2.99998 51.2H9.99841C10.128 51.2215 10.2602 51.2215 10.3898 51.2H26.7984C26.928 51.2215 27.0602 51.2215 27.1898 51.2H43.5984C43.728 51.2215 43.8602 51.2215 43.9898 51.2H51C51.3182 51.2 51.6234 51.0736 51.8485 50.8485C52.0735 50.6235 52.1999 50.3183 52.2 50V18.8C52.2015 18.6671 52.1809 18.5348 52.139 18.4086C52.9142 17.5551 53.4 16.4347 53.4 15.2C53.4 14.8858 53.3689 14.8884 53.3461 14.7829C53.3233 14.6773 53.2943 14.5615 53.2594 14.4243C53.1896 14.1498 53.0943 13.799 52.9804 13.3907C52.7528 12.574 52.4515 11.5321 52.1508 10.5055C51.575 8.54024 51.0482 6.78926 51 6.62895V2.00005C50.9999 1.6818 50.8735 1.37659 50.6485 1.15156C50.4234 0.926519 50.1182 0.800081 49.8 0.800049H4.19998ZM5.39998 3.20005H48.6V5.60005H5.39998V3.20005ZM5.09529 8.00005H48.9047C49.0836 8.59698 49.3776 9.5707 49.8492 11.1805C50.1484 12.2019 50.4472 13.2378 50.6695 14.0352C50.7807 14.4339 50.8729 14.7731 50.9344 15.0149C50.9586 15.1102 50.9727 15.175 50.9859 15.2329C50.9656 16.5544 49.927 17.6 48.6 17.6C47.26 17.6 46.2 16.54 46.2 15.2C46.2015 14.888 46.0815 14.5877 45.8653 14.3627C45.6492 14.1377 45.3539 14.0058 45.0421 13.9948C44.7303 13.9838 44.4264 14.0947 44.195 14.3039C43.9636 14.5132 43.8227 14.8043 43.8023 15.1157C43.8006 15.1438 43.7998 15.1719 43.8 15.2C43.8 16.54 42.74 17.6 41.4 17.6C40.06 17.6 39 16.54 39 15.2C39.0041 14.9167 38.9077 14.6411 38.7281 14.4219C38.703 14.3917 38.6764 14.3628 38.6484 14.3352C38.5635 14.2501 38.4664 14.1782 38.3601 14.1219C38.3594 14.1219 38.3586 14.1219 38.3578 14.1219C38.3227 14.103 38.2867 14.0857 38.25 14.0704C38.1383 14.0257 38.0206 13.998 37.9008 13.9883C37.861 13.9848 37.8211 13.9832 37.7812 13.9836C37.7008 13.985 37.6207 13.9944 37.5422 14.0118C37.5034 14.02 37.4651 14.0302 37.4273 14.0422C37.3899 14.0545 37.3532 14.0686 37.3172 14.0844C37.3164 14.0852 37.3156 14.086 37.3148 14.0868C37.2562 14.1127 37.1998 14.1432 37.1461 14.1782C37.1326 14.1865 37.1193 14.1951 37.1062 14.204C37.0927 14.2146 37.0794 14.2255 37.0664 14.2368C37.0163 14.2744 36.9693 14.316 36.9258 14.361C36.8711 14.4193 36.8224 14.4829 36.7804 14.5508C36.7592 14.5842 36.7397 14.6186 36.7219 14.654C36.7219 14.6547 36.7219 14.6555 36.7219 14.6563C36.7045 14.6914 36.6888 14.7274 36.675 14.7641C36.675 14.7649 36.675 14.7657 36.675 14.7665C36.6614 14.8034 36.6497 14.8409 36.6398 14.879C36.6398 14.8797 36.6398 14.8805 36.6398 14.8813C36.6294 14.9191 36.6208 14.9575 36.614 14.9961C36.614 14.9969 36.614 14.9977 36.614 14.9985C36.6082 15.0373 36.6043 15.0764 36.6023 15.1157C36.6023 15.1165 36.6023 15.1172 36.6023 15.118C36.6006 15.1453 36.5998 15.1727 36.6 15.2C36.6 16.54 35.54 17.6 34.2 17.6C32.86 17.6 31.8 16.54 31.8 15.2C31.8004 15.1602 31.7988 15.1203 31.7953 15.0805C31.7743 14.8399 31.6812 14.6111 31.5281 14.4243C31.5281 14.4235 31.5281 14.4227 31.5281 14.4219C31.426 14.2982 31.3 14.1962 31.1578 14.1219C31.1227 14.103 31.0867 14.0857 31.05 14.0704C30.9383 14.0257 30.8206 13.998 30.7008 13.9883C30.6212 13.9812 30.5411 13.9819 30.4617 13.9907C30.4215 13.9957 30.3816 14.0027 30.3422 14.0118C30.265 14.0285 30.1896 14.0529 30.1172 14.0844C30.1164 14.0852 30.1156 14.086 30.1148 14.0868C30.0562 14.1127 29.9998 14.1432 29.9461 14.1782C29.9187 14.1966 29.8921 14.2161 29.8664 14.2368C29.8163 14.2744 29.7693 14.316 29.7258 14.361C29.6436 14.4479 29.5748 14.5467 29.5219 14.654C29.5219 14.6547 29.5219 14.6555 29.5219 14.6563C29.5045 14.6914 29.4888 14.7274 29.475 14.7641C29.475 14.7649 29.475 14.7657 29.475 14.7665C29.4614 14.8034 29.4497 14.8409 29.4398 14.879C29.4398 14.8797 29.4398 14.8805 29.4398 14.8813C29.4294 14.9191 29.4207 14.9575 29.414 14.9961C29.414 14.9969 29.414 14.9977 29.414 14.9985C29.4082 15.0373 29.4043 15.0764 29.4023 15.1157C29.4023 15.1165 29.4023 15.1172 29.4023 15.118C29.4006 15.1453 29.3998 15.1727 29.4 15.2C29.4 16.54 28.34 17.6 27 17.6C25.66 17.6 24.6 16.54 24.6 15.2C24.6004 15.1602 24.5988 15.1203 24.5953 15.0805C24.5743 14.8399 24.4812 14.6111 24.3281 14.4243C24.3281 14.4235 24.3281 14.4227 24.3281 14.4219C24.226 14.2982 24.1 14.1962 23.9578 14.1219C23.9227 14.103 23.8867 14.0857 23.85 14.0704C23.6637 13.995 23.4614 13.9676 23.2617 13.9907C23.2215 13.9957 23.1816 14.0027 23.1422 14.0118C23.065 14.0285 22.9896 14.0529 22.9172 14.0844C22.9164 14.0852 22.9156 14.086 22.9148 14.0868C22.8562 14.1127 22.7998 14.1432 22.7461 14.1782C22.7326 14.1865 22.7193 14.1951 22.7062 14.204C22.6927 14.2146 22.6794 14.2255 22.6664 14.2368C22.5213 14.3478 22.4034 14.4905 22.3219 14.654C22.3218 14.6547 22.3218 14.6555 22.3219 14.6563C22.3045 14.6914 22.2888 14.7274 22.275 14.7641C22.275 14.7649 22.275 14.7657 22.275 14.7665C22.2614 14.8034 22.2497 14.8409 22.2398 14.879C22.2398 14.8797 22.2398 14.8805 22.2398 14.8813C22.2294 14.9191 22.2207 14.9575 22.214 14.9961C22.214 14.9969 22.214 14.9977 22.214 14.9985C22.2082 15.0373 22.2043 15.0764 22.2023 15.1157C22.2023 15.1165 22.2023 15.1172 22.2023 15.118C22.2006 15.1453 22.1998 15.1727 22.2 15.2C22.2 16.54 21.14 17.6 19.8 17.6C18.46 17.6 17.4 16.54 17.4 15.2C17.4004 15.1602 17.3988 15.1203 17.3953 15.0805C17.3743 14.8399 17.2812 14.6111 17.1281 14.4243C17.1281 14.4235 17.1281 14.4227 17.1281 14.4219C17.026 14.2982 16.9 14.1962 16.7578 14.1219C16.7227 14.103 16.6867 14.0857 16.65 14.0704C16.4637 13.995 16.2614 13.9676 16.0617 13.9907C16.0215 13.9957 15.9816 14.0027 15.9422 14.0118C15.865 14.0285 15.7896 14.0529 15.7172 14.0844C15.7164 14.0852 15.7156 14.086 15.7148 14.0868C15.6562 14.1127 15.5998 14.1432 15.5461 14.1782C15.5326 14.1865 15.5193 14.1951 15.5062 14.204C15.4927 14.2146 15.4794 14.2255 15.4664 14.2368C15.3213 14.3478 15.2034 14.4905 15.1219 14.654C15.1218 14.6547 15.1218 14.6555 15.1219 14.6563C15.1045 14.6914 15.0888 14.7274 15.075 14.7641C15.075 14.7649 15.075 14.7657 15.075 14.7665C15.0614 14.8034 15.0497 14.8409 15.0398 14.879C15.0398 14.8797 15.0398 14.8805 15.0398 14.8813C15.0294 14.9191 15.0207 14.9575 15.014 14.9961C15.014 14.9969 15.014 14.9977 15.014 14.9985C15.0082 15.0373 15.0043 15.0764 15.0023 15.1157C15.0023 15.1165 15.0023 15.1172 15.0023 15.118C15.0006 15.1453 14.9998 15.1727 15 15.2C15 16.54 13.94 17.6 12.6 17.6C11.26 17.6 10.2 16.54 10.2 15.2C10.2004 15.1602 10.1988 15.1203 10.1953 15.0805C10.1743 14.8399 10.0812 14.6111 9.9281 14.4243C9.9281 14.4235 9.9281 14.4227 9.9281 14.4219C9.82596 14.2982 9.70004 14.1962 9.55779 14.1219C9.52273 14.103 9.48675 14.0857 9.44998 14.0704C9.26365 13.995 9.06137 13.9676 8.86169 13.9907C8.82152 13.9957 8.78163 14.0027 8.74216 14.0118C8.66496 14.0285 8.58959 14.0529 8.51716 14.0844C8.51638 14.0852 8.5156 14.086 8.51482 14.0868C8.45622 14.1127 8.39979 14.1432 8.34607 14.1782C8.33262 14.1865 8.31934 14.1951 8.30623 14.204C8.29271 14.2146 8.27943 14.2255 8.26638 14.2368C8.12128 14.3478 8.00344 14.4905 7.92185 14.654C7.92185 14.6547 7.92185 14.6555 7.92185 14.6563C7.90447 14.6914 7.88883 14.7274 7.87498 14.7641C7.87498 14.7649 7.87498 14.7657 7.87498 14.7665C7.86142 14.8034 7.84969 14.8409 7.83982 14.879C7.83982 14.8797 7.83982 14.8805 7.83982 14.8813C7.82935 14.9191 7.82075 14.9575 7.81404 14.9961C7.81404 14.9969 7.81404 14.9977 7.81404 14.9985C7.80822 15.0373 7.80431 15.0764 7.80232 15.1157C7.80232 15.1165 7.80232 15.1172 7.80232 15.118C7.8006 15.1453 7.79982 15.1727 7.79998 15.2C7.79998 16.54 6.73997 17.6 5.39998 17.6C4.07298 17.6 3.03434 16.5544 3.01404 15.2329C3.02727 15.175 3.04138 15.1102 3.0656 15.0149C3.12707 14.7731 3.21929 14.4339 3.33044 14.0352C3.55276 13.2378 3.85153 12.2019 4.15076 11.1805C4.62239 9.5707 4.9164 8.59698 5.09529 8.00005ZM8.99998 18.3336C9.88216 19.3446 11.1634 20 12.6 20C14.0366 20 15.3178 19.3446 16.2 18.3336C17.0822 19.3446 18.3634 20 19.8 20C21.2366 20 22.5178 19.3446 23.4 18.3336C24.2822 19.3446 25.5634 20 27 20C28.4366 20 29.7178 19.3446 30.6 18.3336C31.4822 19.3446 32.7634 20 34.2 20C35.6366 20 36.9178 19.3446 37.8 18.3336C38.6822 19.3446 39.9634 20 41.4 20C42.8366 20 44.1178 19.3446 45 18.3336C45.8822 19.3446 47.1634 20 48.6 20C49.0164 20 49.4139 19.9278 49.8 19.8266V48.8H45V24.8C44.9999 24.4818 44.8735 24.1766 44.6485 23.9516C44.4234 23.7265 44.1182 23.6001 43.8 23.6H27.1851C27.1178 23.5888 27.0495 23.5833 26.9812 23.5836C26.9231 23.5849 26.8651 23.5904 26.8078 23.6H10.2C9.88173 23.6001 9.57652 23.7265 9.35148 23.9516C9.12645 24.1766 9.00001 24.4818 8.99998 24.8V48.8H4.19998V19.8266C4.5861 19.9278 4.98358 20 5.39998 20C6.83656 20 8.11779 19.3446 8.99998 18.3336ZM11.4 26H25.8V48.8H11.4V26ZM28.2 26H42.6V48.8H28.2V26ZM22.2 35.6C21.8817 35.6 21.5765 35.7265 21.3514 35.9515C21.1264 36.1766 21 36.4818 21 36.8C21 37.1183 21.1264 37.4235 21.3514 37.6486C21.5765 37.8736 21.8817 38 22.2 38C22.5182 38 22.8235 37.8736 23.0485 37.6486C23.2736 37.4235 23.4 37.1183 23.4 36.8C23.4 36.4818 23.2736 36.1766 23.0485 35.9515C22.8235 35.7265 22.5182 35.6 22.2 35.6ZM31.8 35.6C31.4817 35.6 31.1765 35.7265 30.9514 35.9515C30.7264 36.1766 30.6 36.4818 30.6 36.8C30.6 37.1183 30.7264 37.4235 30.9514 37.6486C31.1765 37.8736 31.4817 38 31.8 38C32.1182 38 32.4235 37.8736 32.6485 37.6486C32.8736 37.4235 33 37.1183 33 36.8C33 36.4818 32.8736 36.1766 32.6485 35.9515C32.4235 35.7265 32.1182 35.6 31.8 35.6Z" fill="#1740AA"></path></svg> 