<?xml version="1.0" encoding="UTF-8"?> <svg xmlns="http://www.w3.org/2000/svg" width="220" height="47" viewBox="0 0 220 47" fill="none"><path fill-rule="evenodd" clip-rule="evenodd" d="M28.2013 2.87036L32.3847 2.46174C33.2617 2.39361 33.6666 3.07448 33.6666 3.55163V42.5052C33.6666 43.7994 32.9917 44.5486 31.5749 44.3441L28.2687 43.6632C28.2687 45.4335 28.4036 47.1361 26.3801 46.864C25.7052 46.7956 1.82193 43.7994 1.28225 43.7312C0.540361 43.5951 0.00068651 42.846 0.00068651 42.2327V5.66264C0.00068651 4.57274 -0.0671938 3.48324 1.14701 3.143C1.61919 3.07448 25.7726 0.0102267 26.11 0.0102267C26.9198 -0.0578998 27.4595 0.214345 27.7969 0.827091C28.1339 1.30385 28.2013 1.98498 28.2013 2.87036M28.2014 5.59413V40.326L30.2256 40.5981C30.6305 40.5981 30.9002 40.326 30.9002 39.9853V5.86625C30.9002 5.66226 30.7653 5.38962 30.4279 5.38962C29.4834 5.45762 28.8762 5.52601 28.2014 5.59413" fill="#C82128"></path><mask id="mask0" maskUnits="userSpaceOnUse" x="42" y="9" width="178" height="31"><path fill-rule="evenodd" clip-rule="evenodd" d="M42.1948 9.71021H220V39.639H42.1948V9.71021Z" fill="white"></path></mask><g mask="url(#mask0)"><path fill-rule="evenodd" clip-rule="evenodd" d="M70.4958 9.71021V19.0548C71.1728 18.1711 71.8493 17.6658 72.8954 17.35C73.6956 16.9711 74.5566 16.7821 75.5408 16.7821C77.7558 16.7821 79.6016 17.4764 80.7708 18.8654C82.0011 20.2548 82.6777 22.338 82.6777 24.7377V39.4496H77.4485V25.432C77.4485 24.2324 77.0793 23.2223 76.4024 22.5274C75.91 21.8333 75.0489 21.4544 74.0646 21.4544C73.0185 21.4544 72.2185 21.8333 71.5419 22.5274C70.865 23.2223 70.4958 24.2324 70.4958 25.432V39.4496H65.2662V9.71021H70.4958ZM103.227 24.7378V39.4497H98.1205V37.5555C97.3207 38.2497 96.6443 38.755 95.7824 39.1338C95.1058 39.4497 94.1216 39.6391 92.8909 39.6391C90.7373 39.6391 89.0147 39.1338 87.7226 37.9343C86.4924 36.5453 85.8159 34.9664 85.8159 32.6932C85.8159 30.673 86.4924 29.0946 87.8458 27.8945C89.1997 26.8215 91.0451 26.1266 93.4446 26.1266H97.9977V24.4219C97.9977 22.0228 96.8283 20.7597 94.4289 20.7597C93.5678 20.7597 92.7676 21.1385 92.2758 21.6439C91.5992 22.1488 91.2301 22.8435 91.2301 23.5382V23.7276H86.4924V23.5382C86.4924 21.4545 87.1693 19.7496 88.7074 18.55C90.0608 17.3501 92.0912 16.7821 94.6139 16.7821C97.3207 16.7821 99.4738 17.4765 100.827 18.6764C102.365 20.065 103.227 22.0228 103.227 24.7378V24.7378ZM97.9993 31.4943V29.7889H94.2455C92.0915 29.7889 90.9224 30.7997 90.9224 32.568C90.9224 34.4628 91.9068 35.3466 94.1223 35.3466C95.4761 35.3466 96.4605 35.1572 97.1375 34.4628C97.6301 33.7678 97.9993 32.694 97.9993 31.4943V31.4943ZM113.379 32.5671C113.379 34.0827 114.056 34.9663 115.593 34.9663H117.131V39.4496H114.732C112.702 39.4496 111.225 38.7549 109.995 37.7449C108.826 36.5451 108.149 34.9663 108.149 32.8826V20.7596H105.134V16.9711H108.149V12.6776L113.379 10.7203V16.9711H117.624V20.7596H113.379V32.5671ZM136.635 24.7378V39.4497H131.528V37.5555C130.851 38.2497 130.236 38.755 129.375 39.1338C128.698 39.4497 127.652 39.6391 126.483 39.6391C124.146 39.6391 122.423 39.1338 121.253 37.9343C120.085 36.5453 119.408 34.9664 119.408 32.6932C119.408 30.673 120.085 29.0946 121.438 27.8945C122.607 26.8215 124.453 26.1266 126.852 26.1266H131.528V24.4219C131.528 22.0228 130.359 20.7597 128.021 20.7597C126.975 20.7597 126.36 21.1385 125.683 21.6439C125.13 22.1488 124.822 22.8435 124.822 23.5382V23.7276H119.9V23.5382C119.9 21.4545 120.761 19.7496 122.115 18.55C123.653 17.3501 125.683 16.7821 128.021 16.7821C130.851 16.7821 132.882 17.4765 134.42 18.6764C135.958 20.065 136.635 22.0228 136.635 24.7378V24.7378ZM131.53 31.4943V29.7889H127.653C125.499 29.7889 124.453 30.7997 124.453 32.568C124.453 34.4628 125.499 35.3466 127.653 35.3466C129.007 35.3466 130.053 35.1572 130.545 34.4628C131.222 33.7678 131.53 32.694 131.53 31.4943V31.4943ZM145.309 39.4496H140.203V9.71021H145.433V19.2441C146.663 17.6658 148.324 16.7821 150.354 16.7821C152.508 16.7821 154.415 17.4764 155.769 19.0548C157.061 20.6337 157.737 22.8434 157.737 26.0007V30.4834C157.737 33.5773 157.061 35.8505 155.769 37.366C154.415 38.9443 152.508 39.639 150.539 39.639C148.324 39.639 146.663 38.9443 145.309 37.366V39.4496ZM152.508 26.1265C152.508 24.6113 152.2 23.3487 151.523 22.5274C151.031 21.8333 150.17 21.4544 149.001 21.4544C147.955 21.4544 146.971 21.8333 146.478 22.6539C145.802 23.5381 145.433 24.6113 145.433 26.1265V30.294C145.433 31.8726 145.802 32.8826 146.478 33.7667C147.155 34.651 147.955 34.9663 149.186 34.9663C151.339 34.9663 152.508 33.3879 152.508 30.294V26.1265ZM160.506 30.2941V26.1266C160.506 22.8435 161.367 20.6338 162.906 19.0549C164.567 17.4765 166.781 16.7821 169.488 16.7821C172.196 16.7821 174.349 17.4765 175.887 19.0549C177.364 20.6338 178.225 22.8435 178.225 26.1266V30.2941C178.225 33.5774 177.364 35.8505 175.887 37.3661C174.349 38.9444 172.196 39.6391 169.488 39.6391C166.781 39.6391 164.567 38.9444 162.906 37.3661C161.367 35.8505 160.506 33.5774 160.506 30.2941V30.2941ZM172.996 26.1265C172.996 23.0328 171.826 21.4544 169.488 21.4544C166.966 21.4544 165.736 23.0328 165.736 26.1265V30.294C165.736 33.3879 166.966 34.9663 169.488 34.9663C171.826 34.9663 172.996 33.3879 172.996 30.294V26.1265ZM180.932 30.2941V26.1266C180.932 22.8435 181.609 20.6338 183.331 19.0549C184.808 17.4765 187.023 16.7821 189.73 16.7821C192.437 16.7821 194.591 17.4765 196.129 19.0549C197.79 20.6338 198.467 22.8435 198.467 26.1266V30.2941C198.467 33.5774 197.79 35.8505 196.129 37.3661C194.591 38.9444 192.437 39.6391 189.73 39.6391C187.023 39.6391 184.808 38.9444 183.331 37.3661C181.609 35.8505 180.932 33.5774 180.932 30.2941V30.2941ZM193.421 26.1265C193.421 23.0328 192.068 21.4544 189.73 21.4544C187.208 21.4544 185.977 23.0328 185.977 26.1265V30.294C185.977 33.3879 187.208 34.9663 189.73 34.9663C192.068 34.9663 193.421 33.3879 193.421 30.294V26.1265ZM47.609 31.1782V39.4497H42.1948V9.7103H47.609V23.5382L55.8533 9.7103H62.0674L53.6387 22.1488L63.1131 39.4497H56.8375L50.4391 26.695L47.609 31.1782ZM206.834 32.8826V39.4496H201.604V9.71021H206.834V26.5054L213.232 17.1605H219.139L212.248 26.5054L220 39.4496H213.601L208.68 30.4834L206.834 32.8826Z" fill="#C82128"></path></g></svg> 