<?xml version="1.0" encoding="UTF-8"?> <svg xmlns="http://www.w3.org/2000/svg" width="35" height="24" viewBox="0 0 35 24" fill="none"><path d="M34.2499 12.1286C34.2421 12.1718 34.2304 12.215 34.2188 12.2543C34.1137 12.7217 33.6972 13.0517 33.2224 13.0399L3.79852 13.0399L12.9526 22.2793C13.1511 22.4678 13.2601 22.7271 13.264 23.0021C13.2601 23.4106 13.0149 23.7759 12.6374 23.9291C12.2637 24.0784 11.8317 23.9881 11.5515 23.6935L0.684879 12.7571L-0.00012207 12.0343L0.684879 11.3115L11.5515 0.375109C11.7928 0.0765591 12.1781 -0.0609322 12.5517 0.0254898C12.9215 0.111912 13.2134 0.406534 13.299 0.779722C13.3846 1.15684 13.2484 1.54574 12.9526 1.78929L3.79852 11.0286L33.2224 11.0286C33.5104 11.0169 33.7867 11.1347 33.9813 11.3429C34.1798 11.555 34.2771 11.8418 34.2499 12.1286Z" fill="#091E56"></path></svg> 