<?xml version="1.0" encoding="UTF-8"?> <svg xmlns="http://www.w3.org/2000/svg" width="35" height="24" viewBox="0 0 35 24" fill="none"><path d="M0.750106 12.1286C0.757891 12.1718 0.769566 12.215 0.781243 12.2543C0.886328 12.7217 1.30278 13.0517 1.77761 13.0399L31.2015 13.0399L22.0474 22.2793C21.8489 22.4678 21.7399 22.7271 21.736 23.0021C21.7399 23.4106 21.9851 23.7759 22.3626 23.9291C22.7363 24.0784 23.1683 23.9881 23.4485 23.6935L34.3151 12.7571L35.0001 12.0343L34.3151 11.3115L23.4485 0.375109C23.2072 0.0765591 22.8219 -0.0609322 22.4483 0.0254898C22.0785 0.111912 21.7866 0.406534 21.701 0.779722C21.6154 1.15684 21.7516 1.54574 22.0474 1.78929L31.2015 11.0286L1.77761 11.0286C1.4896 11.0169 1.21326 11.1347 1.01866 11.3429C0.820164 11.555 0.722862 11.8418 0.750106 12.1286Z" fill="#091E56"></path></svg> 