<?xml version="1.0" encoding="UTF-8"?> <svg xmlns="http://www.w3.org/2000/svg" width="64" height="64" viewBox="0 0 64 64" fill="none"><path d="M50.8 53C56.7647 53 61.6 42.9264 61.6 30.5C61.6 18.0736 56.7647 8 50.8 8C44.8353 8 40 18.0736 40 30.5C40 42.9264 44.8353 53 50.8 53Z" fill="#D3E9FB"></path><path d="M45 8C43.9 8 42.85 8.25 41.85 8.75C41.65 8.75 41.5 8.8 41.3 8.9L17.5 21.55L13.25 24.8L11.35 24.85C10.95 24.6 10.5 24.5 9.99998 24.5C7.44998 24.5 5.59998 27.65 5.59998 32C5.59998 36.35 7.44998 39.5 9.99998 39.5C10.5 39.5 10.95 39.4 11.35 39.15L28.5 48.3V52.25C28.5 53 28 53.4 27.75 53.55C27.55 53.7 26.95 53.95 26.25 53.6L17.25 48.8C16.8 48.5 16.5 48 16.5 47.45V45.25C16.5 44.4 15.85 43.75 15 43.75C14.15 43.75 13.5 44.4 13.5 45.25V47.45C13.5 49.1 14.4 50.65 15.9 51.4L24.9 56.2C25.55 56.55 26.3 56.75 27 56.75C27.8 56.75 28.6 56.55 29.3 56.1C30.65 55.3 31.5 53.85 31.5 52.25V49.85L41.3 55.05C41.45 55.15 41.65 55.2 41.85 55.2C42.85 55.7 43.9 55.95 45 55.95C51.9 55.95 57.3 45.4 57.3 31.95C57.3 18.5 51.9 8 45 8ZM45 53C40.5 53 35.7 44.55 35.7 32C35.7 19.45 40.5 11 45 11C49.5 11 54.3 19.45 54.3 32C54.3 44.55 49.5 53 45 53Z" fill="#1740AA"></path><path d="M44 24.5C43.95 24.5 43.85 24.5 43.8 24.5C43.7 24.5 43.6 24.5 43.5 24.5C40.95 24.5 39.1 27.65 39.1 32C39.1 36.35 40.95 39.5 43.5 39.5C43.6 39.5 43.7 39.5 43.8 39.5C43.85 39.5 43.95 39.5 44 39.5C48.15 39.5 51.5 36.15 51.5 32C51.5 27.85 48.15 24.5 44 24.5Z" fill="#1740AA"></path><path d="M10 32C10 32.85 10.65 33.5 11.5 33.5C12.35 33.5 13 32.85 13 32C13 27.5 13.8 24.1 17.5 21.55L11.35 24.8C10 27.5 10 29.55 10 32Z" fill="white"></path></svg> 